# xmcd
#
# Track frame offsets: 
#        150
#        13143
#        26928
#        39122
#        53675
#        70044
#        83613
#        93090
#        107223
#        120798
#        131225
#        148410
#
# Disc length: 2155 seconds
#
# Revision: 0
# Processed by: cddbd v1.5.2PL0 Copyright (c) Steve Scherf et al.
# Submitted via: ExactAudioCopy v1.3
#
DISCID=9908690c
DTITLE=Ruben Minuto and Matteo Ringressi - Sacred Tunes In A Sepia Tone
DYEAR=2012
DGENRE=Bluegrass
TTITLE0=He Will Set Your Fields On Fire
TTITLE1=In The Garden
TTITLE2=Shake My Mother's Hand For Me
TTITLE3=Romans Ten And Nine
TTITLE4=Two Coats
TTITLE5=I'm Using My Bible For A Roadmap
TTITLE6=Cryin' Holy
TTITLE7=Get Ready
TTITLE8=Beyond The Sunset
TTITLE9=The Lord's Last Supper
TTITLE10=Garden In The Sky
TTITLE11=Ain't No Grave
EXTD=
EXTT0=
EXTT1=
EXTT2=
EXTT3=
EXTT4=
EXTT5=
EXTT6=
EXTT7=
EXTT8=
EXTT9=
EXTT10=
EXTT11=
PLAYORDER=
